<svg width="167" height="67" viewBox="0 0 167 67" fill="none" xmlns="http://www.w3.org/2000/svg">
<path d="M7.05465 0.899998V31H4.25965V0.899998H7.05465ZM18.6647 29.667V31H6.92565V29.667H18.6647ZM21.2877 24.034L18.7937 31H11.6557L13.2037 29.667C14.723 29.667 15.9557 29.4377 16.9017 28.979C17.8763 28.4917 18.6647 27.818 19.2667 26.958C19.8687 26.098 20.399 25.1233 20.8577 24.034H21.2877ZM4.38865 27.861V31H0.948652V30.57C0.948652 30.57 1.03465 30.57 1.20665 30.57C1.40732 30.57 1.50765 30.57 1.50765 30.57C2.25299 30.57 2.88365 30.312 3.39965 29.796C3.94432 29.2513 4.23099 28.6063 4.25965 27.861H4.38865ZM4.38865 4.039H4.25965C4.23099 3.29366 3.94432 2.663 3.39965 2.147C2.88365 1.60233 2.25299 1.33 1.50765 1.33C1.50765 1.33 1.40732 1.33 1.20665 1.33C1.03465 1.33 0.948652 1.33 0.948652 1.33V0.899998H4.38865V4.039ZM6.92565 4.039V0.899998H10.3657V1.33C10.337 1.33 10.2367 1.33 10.0647 1.33C9.89265 1.33 9.80665 1.33 9.80665 1.33C9.06132 1.33 8.41632 1.60233 7.87165 2.147C7.35565 2.663 7.08332 3.29366 7.05465 4.039H6.92565ZM29.6952 5.2V21.454C29.6952 24.2347 30.3975 26.4277 31.8022 28.033C33.2355 29.6383 35.1848 30.441 37.6502 30.441C40.3735 30.441 42.5092 29.6813 44.0572 28.162C45.6338 26.6427 46.4222 24.5643 46.4222 21.927V5.2H48.4002V21.927C48.4002 24.9083 47.4398 27.2733 45.5192 29.022C43.6272 30.742 41.0185 31.602 37.6932 31.602C34.3965 31.602 31.7735 30.742 29.8242 29.022C27.9035 27.302 26.9432 24.9513 26.9432 21.97V5.2H29.6952ZM27.0292 5.2V7.479H26.9432C26.9145 6.963 26.6995 6.533 26.2982 6.189C25.9255 5.81633 25.4525 5.63 24.8792 5.63C24.8792 5.63 24.7645 5.63 24.5352 5.63C24.3345 5.63 24.2342 5.63 24.2342 5.63V5.2H27.0292ZM32.4042 5.2V5.63C32.4042 5.63 32.2895 5.63 32.0602 5.63C31.8595 5.63 31.7592 5.63 31.7592 5.63C31.2145 5.63 30.7272 5.81633 30.2972 6.189C29.8958 6.533 29.6952 6.963 29.6952 7.479H29.6092V5.2H32.4042ZM46.5082 5.2V7.479H46.4222C46.4222 6.963 46.2215 6.533 45.8202 6.189C45.4188 5.81633 44.9315 5.63 44.3582 5.63C44.3582 5.63 44.2435 5.63 44.0142 5.63C43.8135 5.63 43.7132 5.63 43.7132 5.63V5.2H46.5082ZM51.1092 5.2V5.63C51.1092 5.63 50.9945 5.63 50.7652 5.63C50.5645 5.63 50.4642 5.63 50.4642 5.63C49.9195 5.63 49.4465 5.81633 49.0452 6.189C48.6438 6.533 48.4288 6.963 48.4002 7.479H48.3142V5.2H51.1092ZM82.4266 4.598L82.8136 7.393L72.7516 27.216C72.7516 27.216 72.6369 27.4597 72.4076 27.947C72.2069 28.4343 71.9919 29.022 71.7626 29.71C71.5333 30.3693 71.3613 31 71.2466 31.602H70.8166L70.2146 28.893L82.4266 4.598ZM57.2286 28.119V31H52.7566V30.57C52.7566 30.57 52.8569 30.57 53.0576 30.57C53.2869 30.57 53.4016 30.57 53.4016 30.57C54.1469 30.57 54.7919 30.355 55.3366 29.925C55.9099 29.495 56.2396 28.893 56.3256 28.119H57.2286ZM58.5186 28.764C58.4899 29.194 58.5903 29.6097 58.8196 30.011C59.0489 30.3837 59.4789 30.5843 60.1096 30.613H60.7116V31H58.2606V28.764H58.5186ZM59.6796 4.598H60.1096L60.9696 7.135L58.3036 31H55.9386L59.6796 4.598ZM60.1096 4.598L71.8056 27.087L70.8166 31.602L59.2926 9.328L60.1096 4.598ZM82.8136 4.598L86.6836 31H83.4156L80.6206 9.371L82.4266 4.598H82.8136ZM85.3936 28.119H86.2536C86.3683 28.893 86.7123 29.495 87.2856 29.925C87.8589 30.355 88.5039 30.57 89.2206 30.57C89.2206 30.57 89.3209 30.57 89.5216 30.57C89.7509 30.57 89.8656 30.57 89.8656 30.57V31H85.3936V28.119ZM83.1146 28.764H83.4156V31H80.9216V30.613H81.5666C82.2259 30.5843 82.6559 30.3693 82.8566 29.968C83.0859 29.5667 83.1719 29.1653 83.1146 28.764ZM98.7636 5.2V31H96.0546V5.2H98.7636ZM96.1836 28.248V31H92.5286V30.57C92.5286 30.57 92.6289 30.57 92.8296 30.57C93.0302 30.57 93.1306 30.57 93.1306 30.57C93.9332 30.57 94.6069 30.3407 95.1516 29.882C95.7249 29.4233 96.0259 28.8787 96.0546 28.248H96.1836ZM98.6346 28.248H98.7636C98.7922 28.8787 99.0789 29.4233 99.6236 29.882C100.197 30.3407 100.885 30.57 101.688 30.57C101.688 30.57 101.774 30.57 101.946 30.57C102.146 30.57 102.247 30.57 102.247 30.57L102.29 31H98.6346V28.248ZM98.6346 7.952V5.2H102.29L102.247 5.63C102.247 5.63 102.146 5.63 101.946 5.63C101.774 5.63 101.688 5.63 101.688 5.63C100.885 5.63 100.197 5.85933 99.6236 6.318C99.0789 6.748 98.7922 7.29267 98.7636 7.952H98.6346ZM96.1836 7.952H96.0546C96.0259 7.29267 95.7249 6.748 95.1516 6.318C94.6069 5.85933 93.9332 5.63 93.1306 5.63C93.1019 5.63 92.9872 5.63 92.7866 5.63C92.6146 5.63 92.5286 5.63 92.5286 5.63V5.2H96.1836V7.952ZM109.253 4.555L133.075 27.001L133.505 31.602L109.683 9.027L109.253 4.555ZM109.339 28.334V31H106.114V30.57C106.114 30.57 106.229 30.57 106.458 30.57C106.716 30.57 106.845 30.57 106.845 30.57C107.504 30.57 108.063 30.355 108.522 29.925C108.981 29.495 109.21 28.9647 109.21 28.334H109.339ZM111.145 28.334C111.145 28.9647 111.374 29.495 111.833 29.925C112.32 30.355 112.879 30.57 113.51 30.57C113.51 30.57 113.625 30.57 113.854 30.57C114.112 30.57 114.241 30.57 114.241 30.57V31H111.016V28.334H111.145ZM109.253 4.555L111.102 6.963L111.145 31H109.21V9.93C109.21 8.468 109.138 7.20667 108.995 6.146C108.88 5.08533 108.823 4.555 108.823 4.555H109.253ZM133.505 5.2V26.098C133.505 27.0153 133.534 27.904 133.591 28.764C133.648 29.5953 133.706 30.2833 133.763 30.828C133.849 31.344 133.892 31.602 133.892 31.602H133.505L131.613 29.323V5.2H133.505ZM133.376 7.866V5.2H136.601V5.63C136.601 5.63 136.472 5.63 136.214 5.63C135.985 5.63 135.87 5.63 135.87 5.63C135.239 5.63 134.68 5.845 134.193 6.275C133.734 6.705 133.505 7.23533 133.505 7.866H133.376ZM131.613 7.866C131.584 7.23533 131.341 6.705 130.882 6.275C130.423 5.845 129.864 5.63 129.205 5.63C129.205 5.63 129.076 5.63 128.818 5.63C128.589 5.63 128.474 5.63 128.474 5.63V5.2H131.699V7.866H131.613ZM152.567 4.598L164.392 30.742H160.995L151.836 8.425L152.567 4.598ZM144.268 27.861C143.952 28.721 143.995 29.3947 144.397 29.882C144.798 30.3407 145.257 30.57 145.773 30.57H146.117V31H137.904V30.57C137.904 30.57 137.961 30.57 138.076 30.57C138.19 30.57 138.248 30.57 138.248 30.57C138.85 30.57 139.466 30.3693 140.097 29.968C140.727 29.538 141.272 28.8357 141.731 27.861H144.268ZM152.567 4.598L152.868 7.565L143.021 30.871H140.312L150.503 9.027C150.503 9.027 150.574 8.855 150.718 8.511C150.89 8.167 151.076 7.75133 151.277 7.264C151.506 6.748 151.707 6.24633 151.879 5.759C152.051 5.27167 152.151 4.88467 152.18 4.598H152.567ZM157.641 20.981V22.271H146.246V20.981H157.641ZM159.834 27.861H163.102C163.532 28.8357 164.062 29.538 164.693 29.968C165.323 30.3693 165.925 30.57 166.499 30.57C166.499 30.57 166.556 30.57 166.671 30.57C166.785 30.57 166.843 30.57 166.843 30.57V31H158.028V30.57H158.372C158.859 30.57 159.303 30.3407 159.705 29.882C160.106 29.3947 160.149 28.721 159.834 27.861ZM40.3458 66V44.7H49.3458C50.2658 44.7 51.1058 44.89 51.8658 45.27C52.6258 45.65 53.2858 46.17 53.8458 46.83C54.4258 47.47 54.8658 48.19 55.1658 48.99C55.4858 49.77 55.6458 50.57 55.6458 51.39C55.6458 52.41 55.4458 53.37 55.0458 54.27C54.6658 55.17 54.1158 55.93 53.3958 56.55C52.6958 57.17 51.8658 57.58 50.9058 57.78L56.1258 66H53.7558L48.7458 58.14H42.4458V66H40.3458ZM42.4458 56.28H49.4058C50.2458 56.28 50.9758 56.05 51.5958 55.59C52.2158 55.13 52.6958 54.53 53.0358 53.79C53.3758 53.03 53.5458 52.23 53.5458 51.39C53.5458 50.53 53.3458 49.74 52.9458 49.02C52.5658 48.28 52.0458 47.69 51.3858 47.25C50.7458 46.79 50.0258 46.56 49.2258 46.56H42.4458V56.28ZM65.8066 66.3C64.6866 66.3 63.6466 66.09 62.6866 65.67C61.7266 65.23 60.8966 64.64 60.1966 63.9C59.4966 63.14 58.9466 62.27 58.5466 61.29C58.1666 60.31 57.9766 59.26 57.9766 58.14C57.9766 56.68 58.3066 55.34 58.9666 54.12C59.6466 52.9 60.5766 51.93 61.7566 51.21C62.9366 50.47 64.2766 50.1 65.7766 50.1C67.3166 50.1 68.6566 50.47 69.7966 51.21C70.9566 51.95 71.8666 52.93 72.5266 54.15C73.1866 55.35 73.5166 56.67 73.5166 58.11C73.5166 58.27 73.5166 58.43 73.5166 58.59C73.5166 58.73 73.5066 58.84 73.4866 58.92H60.1066C60.2066 60.04 60.5166 61.04 61.0366 61.92C61.5766 62.78 62.2666 63.47 63.1066 63.99C63.9666 64.49 64.8966 64.74 65.8966 64.74C66.9166 64.74 67.8766 64.48 68.7766 63.96C69.6966 63.44 70.3366 62.76 70.6966 61.92L72.4666 62.4C72.1466 63.14 71.6566 63.81 70.9966 64.41C70.3366 65.01 69.5566 65.48 68.6566 65.82C67.7766 66.14 66.8266 66.3 65.8066 66.3ZM60.0466 57.45H71.5966C71.5166 56.31 71.2066 55.31 70.6666 54.45C70.1466 53.59 69.4566 52.92 68.5966 52.44C67.7566 51.94 66.8266 51.69 65.8066 51.69C64.7866 51.69 63.8566 51.94 63.0166 52.44C62.1766 52.92 61.4866 53.6 60.9466 54.48C60.4266 55.34 60.1266 56.33 60.0466 57.45ZM81.7941 66.3C80.5141 66.3 79.3241 66.09 78.2241 65.67C77.1241 65.25 76.1741 64.61 75.3741 63.75L76.2141 62.31C77.0941 63.13 77.9741 63.73 78.8541 64.11C79.7541 64.47 80.7041 64.65 81.7041 64.65C82.9241 64.65 83.9141 64.41 84.6741 63.93C85.4341 63.43 85.8141 62.72 85.8141 61.8C85.8141 61.18 85.6241 60.71 85.2441 60.39C84.8841 60.05 84.3541 59.78 83.6541 59.58C82.9741 59.36 82.1541 59.13 81.1941 58.89C80.1141 58.59 79.2041 58.28 78.4641 57.96C77.7441 57.62 77.1941 57.2 76.8141 56.7C76.4541 56.18 76.2741 55.51 76.2741 54.69C76.2741 53.67 76.5241 52.83 77.0241 52.17C77.5441 51.49 78.2441 50.98 79.1241 50.64C80.0241 50.28 81.0241 50.1 82.1241 50.1C83.3241 50.1 84.3841 50.29 85.3041 50.67C86.2241 51.05 86.9741 51.58 87.5541 52.26L86.5641 53.64C86.0041 53 85.3341 52.53 84.5541 52.23C83.7941 51.91 82.9441 51.75 82.0041 51.75C81.3641 51.75 80.7541 51.84 80.1741 52.02C79.5941 52.18 79.1141 52.46 78.7341 52.86C78.3741 53.24 78.1941 53.77 78.1941 54.45C78.1941 55.01 78.3341 55.45 78.6141 55.77C78.8941 56.07 79.3141 56.33 79.8741 56.55C80.4341 56.75 81.1241 56.97 81.9441 57.21C83.1241 57.53 84.1541 57.86 85.0341 58.2C85.9141 58.52 86.5941 58.94 87.0741 59.46C87.5541 59.98 87.7941 60.71 87.7941 61.65C87.7941 63.11 87.2441 64.25 86.1441 65.07C85.0441 65.89 83.5941 66.3 81.7941 66.3ZM97.826 66.3C96.706 66.3 95.666 66.09 94.706 65.67C93.766 65.23 92.946 64.64 92.246 63.9C91.566 63.14 91.036 62.28 90.656 61.32C90.276 60.34 90.086 59.31 90.086 58.23C90.086 57.11 90.276 56.07 90.656 55.11C91.036 54.13 91.576 53.27 92.276 52.53C92.976 51.77 93.796 51.18 94.736 50.76C95.696 50.32 96.736 50.1 97.856 50.1C98.976 50.1 100.006 50.32 100.946 50.76C101.886 51.18 102.706 51.77 103.406 52.53C104.106 53.27 104.646 54.13 105.026 55.11C105.406 56.07 105.596 57.11 105.596 58.23C105.596 59.31 105.406 60.34 105.026 61.32C104.646 62.28 104.106 63.14 103.406 63.9C102.726 64.64 101.906 65.23 100.946 65.67C100.006 66.09 98.966 66.3 97.826 66.3ZM92.156 58.26C92.156 59.42 92.406 60.48 92.906 61.44C93.426 62.38 94.116 63.13 94.976 63.69C95.836 64.23 96.786 64.5 97.826 64.5C98.866 64.5 99.816 64.22 100.676 63.66C101.536 63.1 102.226 62.34 102.746 61.38C103.266 60.4 103.526 59.34 103.526 58.2C103.526 57.04 103.266 55.98 102.746 55.02C102.226 54.06 101.536 53.3 100.676 52.74C99.816 52.18 98.866 51.9 97.826 51.9C96.786 51.9 95.836 52.19 94.976 52.77C94.136 53.35 93.456 54.12 92.936 55.08C92.416 56.02 92.156 57.08 92.156 58.26ZM116.808 52.17C115.448 52.21 114.248 52.59 113.208 53.31C112.188 54.03 111.468 55.02 111.048 56.28V66H109.008V50.37H110.928V54.12C111.468 53.02 112.178 52.13 113.058 51.45C113.958 50.77 114.908 50.39 115.908 50.31C116.108 50.29 116.278 50.28 116.418 50.28C116.578 50.28 116.708 50.29 116.808 50.31V52.17ZM127.025 65.25C126.865 65.31 126.615 65.42 126.275 65.58C125.935 65.74 125.525 65.88 125.045 66C124.565 66.12 124.045 66.18 123.485 66.18C122.905 66.18 122.355 66.07 121.835 65.85C121.335 65.63 120.935 65.3 120.635 64.86C120.335 64.4 120.185 63.84 120.185 63.18V51.99H118.025V50.37H120.185V45.09H122.225V50.37H125.825V51.99H122.225V62.61C122.265 63.17 122.465 63.59 122.825 63.87C123.205 64.15 123.635 64.29 124.115 64.29C124.675 64.29 125.185 64.2 125.645 64.02C126.105 63.82 126.385 63.68 126.485 63.6L127.025 65.25Z" fill="white"/>
</svg>
